<?xml version="1.0" encoding="utf-8"?>
<!-- Generator: Adobe Illustrator 15.1.0, SVG Export Plug-In . SVG Version: 6.00 Build 0)  -->
<!DOCTYPE svg PUBLIC "-//W3C//DTD SVG 1.1//EN" "http://www.w3.org/Graphics/SVG/1.1/DTD/svg11.dtd">
<svg version="1.1" id="Layer_1" xmlns="http://www.w3.org/2000/svg" xmlns:xlink="http://www.w3.org/1999/xlink" x="0px" y="0px"
	 width="839.28px" height="794.89px" viewBox="0 0 839.28 794.89" enable-background="new 0 0 839.28 794.89" xml:space="preserve">
<polyline fill="none" stroke="#7C152B" stroke-width="3" stroke-linecap="round" stroke-miterlimit="10" points="221.667,87.667 
	221.667,157 321,259.334 321,332.334 "/>
<polyline fill="none" stroke="#EC761D" stroke-width="3" stroke-linecap="round" stroke-miterlimit="10" points="282.333,87.667 
	282.333,153.667 344.333,153.667 344.333,261.334 351,283.334 369.667,301 369.667,474.334 521,474.334 585.334,410.001 "/>
<polyline fill="none" stroke="#DD0036" stroke-width="3" stroke-linecap="round" stroke-miterlimit="10" points="402.334,87.667 
	402.334,301 433.417,332.084 433.417,349.843 398.334,369.667 369.667,360.334 281.334,459 281.334,497.667 214.001,567 
	214.001,711.668 167.001,765.668 116.001,765.668 "/>
<polyline fill="none" stroke="#F9DA00" stroke-width="3" stroke-linecap="round" stroke-miterlimit="10" points="478.334,55.667 
	478.334,210 459.667,263 421.667,281 321,281 294.667,299.667 294.667,393.667 294.667,430.667 307.667,441.667 315.334,464.334 
	281.334,497.667 "/>
<polyline fill="none" stroke="#CAADCF" stroke-width="3" stroke-linecap="round" stroke-miterlimit="10" points="529.668,103.667 
	529.668,228.334 467.668,297.334 467.668,368.334 201.667,368.334 177.334,352.334 113,352.334 "/>
<polyline fill="none" stroke="#0D96D6" stroke-width="3" stroke-linecap="round" stroke-miterlimit="10" points="570.334,87.667 
	570.334,158.334 508.334,223 478.334,236 435.334,236 435.334,332.084 449.38,345.13 449.38,474.334 449.38,487.667 382.19,554.856 
	382.19,662.334 "/>
<polyline fill="none" stroke="#88C63C" stroke-width="3" stroke-linecap="round" stroke-miterlimit="10" points="93.667,354.668 
	142.334,354.668 168.667,354.668 172.667,332.334 492.334,332.334 540.667,379.668 540.667,427 785,427 809,458 "/>
<polyline fill="none" stroke="#A8D4EF" stroke-width="3" stroke-linecap="round" stroke-miterlimit="10" points="75,523.001 
	205.667,393.167 468.334,393.167 504.418,362.084 559,362.084 "/>
<polyline fill="none" stroke="#CE0065" stroke-width="3" stroke-linecap="round" stroke-miterlimit="10" points="649.001,111.001 
	649.001,239.001 507.168,376.834 507.168,462.333 464.918,512.583 464.918,564.667 414.64,564.667 395.01,542.038 "/>
<polygon fill="none" stroke="#530E79" stroke-width="3" stroke-miterlimit="10" points="294.667,299.667 294.667,393.167 
	318.713,417.214 331.417,419.918 501.003,419.918 524.003,381.668 524.003,287.668 501.003,281 321,281 "/>
</svg>
